In 1962, the United States government enlists the help of Mutants with superhuman abilities to stop a malicious dictator who is determined to start world war III.

IMDB rating: 7.9/10 (from 107,723 users)

CAST:

James McAvoy................Charles Xavier
Laurence Belcher............Charles Xavier (12 Years)
Michael Fassbender..........Erik Lehnsherr / Magneto
Bill Milner.................Young Erik
Kevin Bacon.................Sebastian Shaw
Rose Byrne..................Moira MacTaggert
Jennifer Lawrence...........Raven / Mystique
Beth Goddard................Mrs. Xavier / Mystique
Morgan Lily.................Young Raven (10 yrs)
Oliver Platt................The Man in Black
Álex González...............Janos Quested / Riptide
Jason Flemyng...............Azazel
Zoë Kravitz.................Angel Salvadore
January Jones...............Emma Frost
Nicholas Hoult..............Hank McCoy / Beast

Format                           : Matroska
File size                        : 1.27 GiB
Duration                         : 2h 11mn
Overall bit rate                 : 1 378 Kbps
Encoded date                     : UTC 2011-10-02 12:10:17
Writing application              : mkvmerge v5.0.0 ('Die Wahre Liebe') built on Sep 25 2011 20:33:49
Writing library                  : libebml v1.2.2 + libmatroska v1.3.0

Video
ID                               : 1
Format                           : AVC
Format/Info                      : Advanced Video Codec
Format profile                   : Main@L3.0
Format settings, CABAC           : Yes
Format settings, ReFrames        : 4 frames
Muxing mode                      : Container profile=Unknown@3.0
Codec ID                         : V_MPEG4/ISO/AVC
Duration                         : 2h 11mn
Bit rate                         : 1 159 Kbps
Nominal bit rate                 : 1 185 Kbps
Width                            : 720 pixels
Height                           : 340 pixels
Display aspect ratio             : 2.2:1
Frame rate mode                  : Variable
Frame rate                       : 23.976 fps
Resolution                       : 8 bits
Colorimetry                      : 4:2:0
Scan type                        : Progressive
Bits/(Pixel*Frame)               : 0.197
Stream size                      : 1.07 GiB (84%)
Writing library                  : x264 core 112

Audio
ID                               : 2
Format                           : AC-3
Format/Info                      : Audio Coding 3
Codec ID                         : A_AC3
Duration                         : 2h 11mn
Bit rate mode                    : Constant
Bit rate                         : 192 Kbps
Channel(s)                       : 6 channels
Channel positions                : Front: L C R, Side: L R, LFE
Sampling rate                    : 48.0 KHz
Stream size                      : 181 MiB (14%)
Language                         : English

Text(subtitles)
ID                               : 3
Format                           : UTF-8
Codec ID                         : S_TEXT/UTF8
Codec ID/Info                    : UTF-8 Plain Text
Language                         : Romanian
Language                         : Spanish
Language                         : Portuguese
Language                         : Serbian
Language                         : Danish
Language                         : Slovenian
Language                         : Hungarian
Language                         : Dutch

Sit back...Enjoy!















